<svg width="20" height="20" viewBox="0 0 20 20" fill="none" xmlns="http://www.w3.org/2000/svg">
<path d="M9.99935 1.66669C5.40768 1.66669 1.66602 5.40835 1.66602 10C1.66602 14.5917 5.40768 18.3334 9.99935 18.3334C14.591 18.3334 18.3327 14.5917 18.3327 10C18.3327 5.40835 14.591 1.66669 9.99935 1.66669ZM13.9827 8.08335L9.25768 12.8084C9.14102 12.925 8.98268 12.9917 8.81602 12.9917C8.64935 12.9917 8.49102 12.925 8.37435 12.8084L6.01602 10.45C5.77435 10.2084 5.77435 9.80835 6.01602 9.56669C6.25768 9.32502 6.65768 9.32502 6.89935 9.56669L8.81602 11.4834L13.0993 7.20002C13.341 6.95835 13.741 6.95835 13.9827 7.20002C14.2243 7.44169 14.2243 7.83335 13.9827 8.08335Z" fill="#17C964"/>
</svg>
