<svg width="20" height="28" viewBox="0 0 20 28" fill="none" xmlns="http://www.w3.org/2000/svg">
<path d="M3.41644 6.93913C3.41644 3.40436 6.29013 0.53067 9.8249 0.53067C13.3597 0.53067 16.2334 3.40436 16.2334 6.93913C16.2199 10.4064 13.5081 13.2127 10.0543 13.3341H9.95982C9.87887 13.3206 9.77094 13.3206 9.66301 13.3341C6.12823 13.2127 3.41644 10.4064 3.41644 6.93913Z" fill="white"/>
<path d="M2.98449 16.9213C6.7756 14.4119 12.9142 14.4119 16.6783 16.9213C18.3782 18.0546 19.3091 19.5926 19.3226 21.2521C19.3226 22.925 18.3782 24.4631 16.6783 25.6098C14.7895 26.878 12.3071 27.5121 9.82462 27.5121C7.34219 27.5121 4.8598 26.878 2.97099 25.6098C1.27107 24.4765 0.32666 22.9385 0.32666 21.2791C0.32666 19.6196 1.27107 18.0681 2.98449 16.9213Z" fill="white"/>
</svg>
