<svg width="183" height="195" viewBox="0 0 183 195" fill="none" xmlns="http://www.w3.org/2000/svg">
<path d="M103.362 145.958C104.944 133.715 99.1447 113.352 97.052 107.755C94.9593 102.159 92.649 93.5099 92.9457 90.2714C93.2424 87.0329 83.3366 76.0536 83.3366 76.0536C83.08 76.1699 82.835 76.31 82.6048 76.4722L60.5067 78.0283C60.5067 78.0283 49.695 89.8765 56.8276 108.044C58.5999 112.55 57.425 116.882 54.4541 119.236C51.4831 121.59 46.6885 131.61 52.3653 138.091C58.0421 144.572 57.1441 152.522 54.7389 157.53C52.3337 162.538 48.168 169.607 57.425 178.738H70.27C70.27 178.738 74.4515 168.134 77.1416 162.545C78.9059 158.873 81.4378 151.136 82.2131 141.677C83.483 143.517 84.8953 145.164 86.1375 146.756C90.1449 151.89 88.0917 153.126 85.999 163.738C83.9063 174.35 91.747 178.351 91.747 178.351L102.559 177.956C104.636 173.825 102.215 154.722 103.362 145.958Z" fill="#121926"/>
<path d="M61.2939 78.4627L62.4451 71.0891L63.6161 71.2708L62.6904 77.1673L83.2298 75.6389L82.2131 70.0702L83.3762 69.8569L84.6342 76.721L61.2939 78.4627Z" fill="#121926"/>
<path d="M62.3064 179.382C58.8291 176.384 59.2563 165.377 62.2075 161.215C64.7314 157.66 66.559 144.094 60.7042 139.098C58.7737 137.447 57.7293 135.445 57.5988 133.146C57.3416 128.478 60.8624 123.668 63.861 120.473C68.3511 115.674 64.9806 106.962 64.945 106.875L66.0487 106.44C66.203 106.835 69.7317 115.919 64.7274 121.278C62.4013 123.766 58.5363 128.604 58.7934 133.083C58.9042 135.058 59.8101 136.764 61.4835 138.197C67.9001 143.683 65.9577 157.996 63.1846 161.894C60.5934 165.543 60.1029 175.902 63.0896 178.481L62.3064 179.382Z" fill="white"/>
<path d="M70.8513 178.801L69.7871 178.28C78.1817 161.297 81.0577 146.728 81.9913 137.506C83.1781 125.705 81.7698 117.475 80.1913 114.015C76.54 106.014 79.2419 95.8756 79.3566 95.453L80.5038 95.7611C80.4761 95.8637 77.8019 105.923 81.2713 113.533C84.6893 121.017 86.6435 146.835 70.8513 178.801Z" fill="white"/>
<path d="M67.5841 190.191L72.3906 177.948H54.8735L55.6647 193.351L55.728 194.536H57.9157L58.3113 193.351L58.7464 192.067L60.0479 193.351L60.8391 194.141H72.5132V190.191H67.5841ZM58.244 189.895L57.077 193.351H56.8634L56.1276 179.133H70.6499L65.8434 191.376H71.3264V192.956H61.3495L58.244 189.895Z" fill="#121926"/>
<path d="M100.426 189.796L105.233 177.553H87.7158L88.5387 193.351L88.5782 194.141H90.7896L91.0586 193.351L91.6243 191.672L93.3254 193.351L93.721 193.746H105.371V189.796H100.426ZM91.0863 189.5L89.9193 192.956H89.7057L88.9659 178.738H103.492L98.7016 190.981H104.185V192.561H94.1918L91.0863 189.5Z" fill="#121926"/>
<path d="M69.617 47.8193C69.4618 48.3072 69.2294 48.7672 68.9287 49.1819C68.6967 49.5127 68.4415 49.8268 68.1652 50.1218L67.3463 49.6795L67.1445 49.482C67.4113 49.2115 67.6585 48.9225 67.8843 48.6171C68.4263 47.8825 68.6518 47.2348 68.5489 46.7174C68.4212 46.2653 68.1018 45.8916 67.6746 45.6945L68.1335 44.6045C68.9196 44.9444 69.5038 45.6282 69.7159 46.4568C69.8021 46.9118 69.768 47.3814 69.617 47.8193Z" fill="#2970FF"/>
<path d="M72.398 66.1801C71.7919 66.7861 70.9609 67.1137 70.1036 67.0845C67.3344 67.0845 63.9876 64.391 63.8057 64.241L64.5573 63.3247C65.9419 64.4542 69.8979 67.0253 71.5554 65.3468L72.398 66.1801Z" fill="#2970FF"/>
<path d="M81.4655 55.9551C81.4166 56.0577 81.3584 56.1556 81.2914 56.2474L80.3262 55.5563C80.3644 55.505 80.3963 55.4493 80.4211 55.3904L81.4655 55.9551Z" fill="#2970FF"/>
<path d="M74.7165 59.2805C74.5668 59.457 74.3823 59.6008 74.1745 59.7031C73.9294 59.8306 73.6595 59.9034 73.3834 59.9164H73.2489C71.1403 59.9164 68.1061 57.1281 67.7461 56.8042L68.5373 55.9393C69.7241 57.0333 71.9909 58.7316 73.2212 58.7316H73.2963C73.4709 58.7323 73.6377 58.6591 73.7552 58.5301L74.7165 59.2805Z" fill="#2970FF"/>
<path d="M84.8159 61.9069L84.4757 63.0404C84.1392 62.9294 83.7707 62.9743 83.4709 63.1628C82.3711 63.7986 81.6155 65.8918 81.3307 66.9266C81.303 67.0292 81.2832 67.1201 81.2634 67.1991L80.6938 67.0687L80.1162 66.9345C80.2032 66.5395 81.0221 63.2181 82.8854 62.1359C83.4666 61.7879 84.1692 61.7046 84.8159 61.9069Z" fill="#2970FF"/>
<path d="M182.37 193.351H0V194.536H182.37V193.351Z" fill="#121926"/>
<path d="M24.8631 194.536C26.0499 194.931 51.0121 194.536 51.0121 194.536C51.0121 194.536 52.096 187.427 44.8883 185.452C37.6805 183.477 38.8791 183.872 38.4796 173.999C38.08 164.125 36.0744 148.723 30.0692 156.621C24.064 164.52 27.2644 173.999 21.6588 178.738C16.0532 183.477 13.6479 185.847 13.6479 194.536H24.8631Z" fill="#121926"/>
<path d="M115.36 31.7887L113.952 31.6584L110.72 27.2232L108.457 24.1229L86.9011 36.9545L81.0739 40.4181L76.8964 38.3605L75.7571 37.7957L75.4802 37.6615L68.6047 34.265L67.5287 33.7358L65.7564 32.8629L56.1553 43.6251L61.8084 46.6779C61.0172 51.3382 58.691 63.3247 57.0375 71.725L56.8871 72.5149L62.2752 72.037L63.4936 71.9265L82.2093 70.2638L83.3961 70.1571L90.5168 69.5252L89.789 65.0506L88.0562 54.4385L95.537 57.6573L104.576 61.583L120.855 32.2982L115.36 31.7887ZM58.0423 43.2933L66.0452 34.3203L66.8364 34.7152L67.9006 35.2405L75.1795 38.8344L75.6266 39.0556L76.7461 39.6046L81.1214 41.7649L85.7064 39.0359L86.367 38.6409L86.644 38.475L108.125 25.6908L112.378 31.5083L113.307 32.784L114.644 34.6165L100.779 43.7791L98.5831 45.2483L98.3972 45.3667L97.2934 46.0974L89.603 51.1724L87.7477 52.3927L87.2057 52.7482L86.6637 53.1115L86.0149 53.542L81.9561 56.2236L81.43 55.9393L80.3896 55.3745L76.5483 53.2971L68.9133 49.1661L67.8452 48.5974L63.098 46.0381L62.0022 45.4497L58.0423 43.2933ZM88.6378 65.2875L89.152 68.447L58.3508 71.1761C59.2528 66.6027 61.9112 53.0088 62.9002 47.2664L67.319 49.6597L68.1379 50.1021L75.8481 54.2647L82.0036 57.5901L86.8497 54.3911L88.6378 65.2875ZM104.042 60.0664L94.461 55.9116L88.4953 53.3208L90.6118 51.9227L98.4367 46.7569L99.4653 46.0737L116.341 34.9324L114.882 32.938L118.937 33.3092L104.042 60.0664Z" fill="#121926"/>
<path d="M120.855 19.1823L117.651 24.7114H116.899L118.481 21.157H115.249L111.499 26.5044L110.779 27.2272L110.099 27.9144L112.868 31.5557L113.703 32.6576L114.458 32.2627L115.419 31.7769L119.542 29.7074L128.023 19.1823H120.855ZM118.814 28.7832L114.086 31.1529L111.713 28.0131L112.425 27.2983L115.882 22.3418H116.673L115.071 25.8962H118.335L121.539 20.3671H125.57L118.814 28.7832Z" fill="#121926"/>
<path d="M72.0223 41.9702L71.0096 42.6021C69.3362 39.96 66.3178 41.5516 66.1912 41.6227L65.6216 40.58C67.0536 39.806 70.2184 39.099 72.0223 41.9702Z" fill="#2970FF"/>
<path d="M76.188 49.9244C75.7733 50.1269 75.3164 50.2285 74.8548 50.2206C72.9164 50.2206 70.7169 48.6921 69.6171 47.8193C69.2809 47.5547 69.0475 47.3494 68.9604 47.2664L69.6963 46.4528L69.7556 46.3896C70.8316 47.3573 73.9924 49.6874 75.6619 48.8659L76.188 49.9244Z" fill="#2970FF"/>
<path d="M94.1322 43.242C93.8315 43.3433 93.516 43.3941 93.1986 43.3921C93.0101 43.393 92.822 43.3758 92.6369 43.3407C91.4224 43.1314 90.3266 42.2823 89.5789 41.5517C89.221 41.2024 88.8891 40.8275 88.5859 40.43L89.2149 39.968L89.5433 39.7271C89.7749 40.0373 90.0287 40.3303 90.3028 40.6038C91.0228 41.3266 92.0514 42.1243 93.0443 42.2073C93.2898 42.2307 93.5375 42.2038 93.7722 42.1283L93.9779 42.7562L94.1322 43.242Z" fill="#2970FF"/>
<path d="M101.471 34.1109C97.8904 36.1567 94.8206 38.5658 94.9037 39.2688L93.8395 39.7901C92.9217 37.9774 97.8588 34.81 100.881 33.0762L101.471 34.1109Z" fill="#2970FF"/>
<path d="M106.613 33.795C106.573 34.8392 106.242 35.8515 105.656 36.7176L105.154 36.3226L104.71 35.987C105.199 35.2275 105.455 34.3421 105.446 33.4396C105.465 32.9874 105.448 32.5344 105.395 32.0849L106.297 31.9586L106.57 31.9191C106.646 32.5414 106.661 33.1698 106.613 33.795Z" fill="#2970FF"/>
<path d="M100.402 40.7025C100.106 41.0382 98.5351 42.8075 96.8222 44.4188C96.5176 44.7072 96.209 44.9876 95.9044 45.2522C94.7572 46.2514 93.6337 47.061 92.8623 47.2269L92.6328 46.0657C93.1194 45.971 93.9146 45.4141 94.8244 44.6361C95.1251 44.3833 95.4376 44.1029 95.7541 43.8067C97.0833 42.5745 98.5233 41.0737 99.5083 39.9363L100.402 40.7025Z" fill="#2970FF"/>
<path d="M64.5734 43.7317L64.0473 44.7901C62.4649 44.0002 62.3581 42.2151 62.5282 41.3778L63.6912 41.6108C63.6794 41.6938 63.4104 43.155 64.5734 43.7317Z" fill="#2970FF"/>
<path d="M64.2847 57.6059L63.5766 58.5616C61.6698 57.1478 63.7625 52.756 64.2016 51.8911L65.2618 52.4282C64.3638 54.1581 63.446 57.0056 64.2847 57.6059Z" fill="#2970FF"/>
<path d="M65.7287 66.6145L65.2896 67.7204C64.4122 67.3426 63.3906 67.5852 62.7775 68.3167L61.832 67.5979C62.7687 66.4436 64.3551 66.0433 65.7287 66.6145Z" fill="#2970FF"/>
<path d="M101.471 56.3539C99.9158 56.3539 98.1 54.3792 97.9102 54.1344L98.7963 53.3445C99.4767 54.1107 100.747 55.1691 101.478 55.1691H101.506C101.665 55.1726 101.815 55.0934 101.902 54.9598L102.847 55.6786C102.548 56.09 102.075 56.3395 101.565 56.3539H101.471Z" fill="#2970FF"/>
<path d="M101.407 50.0112C101.209 49.5235 101.223 48.9752 101.447 48.4986C102.183 46.8596 105.039 45.7932 105.363 45.6787L105.759 46.7924C104.722 47.1874 102.923 48.0918 102.527 48.9804C102.433 49.1635 102.424 49.3788 102.503 49.5689L101.407 50.0112Z" fill="#2970FF"/>
<path d="M107.982 49.0278L107.147 48.1827C108.334 46.9978 108.868 43.4947 108.975 42.2349L110.162 42.3376C110.114 42.8431 109.691 47.3414 107.982 49.0278Z" fill="#2970FF"/>
<path d="M93.7723 53.0958C93.3569 51.4449 94.8721 50.3667 95.7503 50.0271L96.1854 51.129C96.1261 51.1566 94.6742 51.753 94.9393 52.8035L93.7723 53.0958Z" fill="#2970FF"/>
<path d="M112.963 42.2863H111.776C111.776 41.4016 112.5 39.9166 112.642 39.6481L113.702 40.1852C113.394 40.7894 112.963 41.84 112.963 42.2863Z" fill="#2970FF"/>
<path d="M76.4531 66.8989L75.4009 67.4361L74.1982 65.0664L75.2545 64.5293L76.4531 66.8989Z" fill="#2970FF"/>
<path d="M174.008 174.212C172.627 172.818 170.574 172.498 167.904 173.26C163.948 174.386 160.201 176.052 157.183 177.391C153.927 178.833 150.565 180.326 149.797 179.65C149.635 179.512 149.33 178.963 149.951 176.886C150.41 175.357 151.055 173.556 151.736 171.653C154.149 164.939 156.641 157.968 154.192 155.441C153.183 154.398 151.554 154.256 149.2 155.01C142.641 157.107 137.613 161.412 136.386 165.978C135.761 168.308 136.24 170.5 137.731 172.139C138.337 172.802 138.372 173.142 138.352 173.189C138.333 173.237 138.091 173.402 137.32 173.371C134.317 173.237 127.921 170.152 125.848 164.489C124.934 161.985 123.411 161.574 122.584 161.554C120.744 161.511 118.802 163.233 117.655 165.95C115.25 171.629 116.104 181.041 125.705 190.401L125.879 190.57H174.32L174.447 190.148C174.593 189.678 177.96 178.197 174.008 174.212ZM173.43 189.401H126.394C117.382 180.511 116.543 171.716 118.778 166.424C119.712 164.22 121.215 162.755 122.54 162.755H122.584C123.49 162.779 124.265 163.545 124.764 164.911C127.114 171.364 134.195 174.429 137.288 174.571C138.697 174.631 139.243 174.137 139.444 173.706C139.745 173.071 139.472 172.281 138.629 171.357C137.399 170.006 137.027 168.256 137.553 166.297C138.677 162.111 143.396 158.13 149.583 156.155C151.435 155.563 152.705 155.606 153.361 156.282C155.292 158.276 152.713 165.48 150.64 171.27C149.951 173.189 149.303 175.006 148.832 176.558C148.207 178.643 148.27 179.872 149.034 180.539C150.371 181.724 153.278 180.428 157.685 178.473C160.648 177.158 164.371 175.5 168.228 174.394C170.451 173.758 172.113 173.979 173.165 175.041C176.239 178.146 173.992 187.316 173.43 189.401Z" fill="#121926"/>
<path d="M143.167 74.8672L113.424 81.5267L120.111 111.236L149.854 104.577L143.167 74.8672Z" fill="#2970FF"/>
<path d="M134.06 108.044L131.164 92.1355L116.472 94.7974L107.844 96.3771L112.045 119.489L135.385 115.263L134.06 108.044ZM113.002 118.095L109.224 97.3132L116.741 95.9546L130.223 93.5099L132.913 108.3L134.001 114.292L113.002 118.095Z" fill="#121926"/>
<path d="M85.338 33.795C83.3205 32.7998 83.2809 27.0811 83.3165 25.2604L84.7367 25.521C84.7367 25.521 89.3454 18.1396 76.9435 16.2715C76.9435 16.2715 76.805 16.2163 76.5716 16.1452C77.3426 13.006 75.6165 9.79203 72.5708 8.69583C69.5252 7.59963 66.1419 8.97462 64.7291 11.8828C63.3163 14.7909 64.3294 18.2947 67.0773 20.0037C66.9642 20.0731 66.8605 20.1568 66.7687 20.2525C65.4395 21.5993 65.8153 22.4642 65.9973 24.352C66.1793 26.2398 64.7195 25.446 63.2281 26.2319C61.7367 27.0179 59.7825 28.1237 61.9306 29.5731L68.7388 32.1086L67.552 33.7437L67.0575 34.4151C66.9855 34.513 66.9207 34.6159 66.8637 34.7231L67.9278 35.2484C67.953 35.2001 67.9821 35.1538 68.0148 35.1102L68.628 34.2729L69.8979 32.5391L74.4987 34.2532C74.8293 33.8426 75.096 33.3846 75.2899 32.8946C75.5914 33.0567 75.908 33.189 76.2354 33.2895L75.9149 36.449C75.7685 36.844 75.6261 37.2587 75.4995 37.6812C75.3729 38.1038 75.282 38.4711 75.1989 38.8661L75.6499 39.0872L76.7694 39.6402L81.1487 41.8005L85.7416 39.0675L86.4022 38.6725C86.4299 38.5738 86.4576 38.479 86.4813 38.3882C86.6712 37.701 86.8492 37.2034 86.9283 36.9783C87.3398 35.7697 87.7393 34.9799 85.338 33.795ZM75.5233 31.6742C75.5025 31.2466 75.3396 30.8381 75.0604 30.5131C73.7431 28.9333 72.6354 27.6853 73.8736 26.848C75.1119 26.0108 75.0842 24.6838 74.4987 23.5147L74.4789 23.4792C74.3385 23.192 74.4273 22.8456 74.6887 22.6611C74.9501 22.4767 75.3069 22.5087 75.5312 22.7367L76.9435 24.0953L81.3188 24.8852C81.2792 27.1798 80.8322 30.5684 78.6881 31.9112C77.6753 32.551 76.5479 32.2982 75.5233 31.6742Z" fill="#121926"/>
<path d="M123.905 6.08997L121.563 6.35853C121.003 6.42551 120.451 6.54451 119.914 6.71398L116.227 0C116.227 0 114.332 3.55446 114.352 6.59155L109.383 5.75428C109.383 5.75428 111.456 10.4462 114.379 11.9153C113.865 13.2404 113.683 14.6707 113.849 16.082L116.191 15.8134C121.009 15.2526 124.462 10.9009 123.905 6.08997Z" fill="#121926"/>
<path d="M123.707 7.11682L128.371 8.11997L123.229 9.30479L123.707 7.11682Z" fill="#2970FF"/>
<path d="M82.1259 49.0002H80.9391C80.9391 47.5982 79.06 46.4292 77.5409 45.7499C77.0894 45.5452 76.6256 45.3684 76.1523 45.2206L76.5005 44.0872L76.5717 44.1109C77.2521 44.3281 82.1259 45.9908 82.1259 49.0002Z" fill="#2970FF"/>
<path d="M88.756 46.208L87.9253 47.0531C87.5482 46.6876 87.1521 46.3422 86.7385 46.0184C86.5328 45.8565 86.3192 45.6945 86.1055 45.5366C85.8919 45.3786 85.611 45.1732 85.3697 44.9994C84.2304 44.2096 83.2414 43.5935 83.2256 43.5816L83.8506 42.5706C83.9021 42.6022 84.4084 42.9142 85.1047 43.3802L85.8761 43.9094L86.4616 44.3043C87.2692 44.8856 88.0358 45.5216 88.756 46.208Z" fill="#2970FF"/>
</svg>
