<svg width="24" height="25" viewBox="0 0 24 25" fill="none" xmlns="http://www.w3.org/2000/svg">
<path d="M20 11.7686V12.5046C19.999 14.2297 19.4404 15.9083 18.4075 17.29C17.3745 18.6718 15.9226 19.6826 14.2683 20.1717C12.6139 20.6608 10.8458 20.6021 9.22757 20.0042C7.60934 19.4064 6.22772 18.3015 5.28877 16.8542C4.34981 15.407 3.90383 13.695 4.01734 11.9736C4.13085 10.2522 4.79777 8.61364 5.91862 7.30224C7.03948 5.99083 8.55423 5.07688 10.2369 4.6967C11.9197 4.31651 13.6802 4.49045 15.256 5.19258M9 10.8333L11.6262 13.4596C12.0168 13.8501 12.6499 13.8501 13.0404 13.4596L19 7.5" stroke="#008557" stroke-width="1.5" stroke-linecap="round" stroke-linejoin="round"/>
</svg>
