<svg width="25" height="24" viewBox="0 0 25 24" fill="none" xmlns="http://www.w3.org/2000/svg">
<path d="M16 13.15H13.83C12.05 13.15 10.6 11.71 10.6 9.92V7.75C10.6 7.34 10.27 7 9.85 7H6.68C4.37 7 2.5 8.5 2.5 11.18V17.82C2.5 20.5 4.37 22 6.68 22H12.57C14.88 22 16.75 20.5 16.75 17.82V13.9C16.75 13.48 16.41 13.15 16 13.15Z" fill="#292D32"/>
<path d="M18.3198 2H16.3498H15.2598H12.4298C10.1698 2 8.33977 3.44 8.25977 6.01C8.31977 6.01 8.36977 6 8.42977 6H11.2598H12.3498H14.3198C16.6298 6 18.4998 7.5 18.4998 10.18V12.15V14.86V16.83C18.4998 16.89 18.4898 16.94 18.4898 16.99C20.7198 16.92 22.4998 15.44 22.4998 12.83V10.86V8.15V6.18C22.4998 3.5 20.6298 2 18.3198 2Z" fill="#292D32"/>
<path d="M12.4796 7.14999C12.1696 6.83999 11.6396 7.04999 11.6396 7.47999V10.1C11.6396 11.2 12.5696 12.1 13.7096 12.1C14.4196 12.11 15.4096 12.11 16.2596 12.11C16.6896 12.11 16.9096 11.61 16.6096 11.31C15.5196 10.22 13.5796 8.26999 12.4796 7.14999Z" fill="#292D32"/>
</svg>
