<svg width="180" height="201" viewBox="0 0 180 201" fill="none" xmlns="http://www.w3.org/2000/svg">
<path d="M136.39 75.4624C135.513 70.8841 135.834 66.4569 137.245 63.6472C140.63 56.8895 139.706 51.1764 133.951 43.2768C130.011 37.8735 131.844 33.7526 133.229 31.8398L136.538 31.4256L134.99 28.5438C140.583 27.6504 144.869 21.7897 144.869 14.7762C144.869 7.12871 139.771 0.907715 133.504 0.907715C127.236 0.907715 122.138 7.12871 122.138 14.7762C122.138 21.2818 125.789 26.8364 130.909 28.2808L128.986 32.3657L131.847 32.0055C130.455 34.4046 129.242 38.6552 133.067 43.8928C138.613 51.5078 139.482 56.7274 136.267 63.1465C132.937 69.7926 135.715 82.2994 140.042 85.4369L140.677 84.5652C138.88 83.2756 137.191 79.695 136.39 75.4624ZM132.464 27.5244L131.793 27.3839C126.825 26.3537 123.22 21.0512 123.22 14.7762C123.22 7.72308 127.835 1.98837 133.504 1.98837C139.172 1.98837 143.787 7.72308 143.787 14.7762C143.787 21.5591 139.522 27.1678 134.081 27.5424L133.247 27.6L134.82 30.5466L134.185 30.6259L132.652 30.8168L130.808 31.0473L132.464 27.5244Z" fill="#121926"/>
<path d="M87.6576 103.39H53.6143C53.672 103.207 53.7297 103.03 53.7911 102.85C53.8524 102.67 53.921 102.49 53.9895 102.31C55.2524 99.0388 57.1539 97.3674 57.623 96.9892L57.7312 96.9063L75.4547 92.7242C75.64 92.4998 75.8427 92.2902 76.0608 92.0974C76.1474 92.0218 76.234 91.9533 76.317 91.8885C76.5314 91.7244 76.7624 91.5832 77.0062 91.467C77.0531 91.4382 77.1 91.4202 77.1469 91.395C77.1938 91.3698 85.8066 96.9604 87.4303 102.31C87.47 102.436 87.506 102.565 87.5349 102.691C87.5849 102.883 87.6211 103.078 87.6431 103.275C87.6504 103.315 87.654 103.351 87.6576 103.39Z" fill="#121926"/>
<path d="M97.0605 154.542C98.5038 143.375 93.2611 124.802 91.3776 119.698C90.0907 116.139 89.0526 112.496 88.2709 108.794C88.2349 108.61 88.1988 108.433 88.1663 108.253C88.1338 108.073 88.0977 107.893 88.0653 107.713H52.8637C52.8637 107.89 52.8421 108.073 52.8385 108.253C52.8349 108.433 52.8385 108.614 52.8385 108.794C52.8385 111.845 53.4374 115.544 55.1513 119.96C56.7461 124.071 55.6889 128.022 52.9864 130.169C50.2839 132.316 45.9901 141.455 51.1029 147.366C56.2157 153.277 55.4075 160.528 53.2678 165.096C51.1751 169.53 47.5633 175.737 54.9926 183.719C55.2163 183.957 55.4472 184.199 55.6889 184.44H67.2604L67.3254 184.271C67.3759 184.148 67.448 183.961 67.5419 183.719C68.4619 181.385 71.4243 173.929 73.4485 169.671C75.0397 166.321 77.3237 159.268 78.0237 150.64C78.1463 150.824 78.2726 151.001 78.3845 151.184C79.4236 152.647 80.5494 153.976 81.5416 155.269C85.1498 159.952 83.3024 161.08 81.419 170.759C80.0046 178.017 83.6272 181.893 85.5215 183.366C85.8611 183.637 86.2232 183.878 86.6039 184.087L96.3461 183.727C96.4002 183.619 96.4507 183.496 96.5012 183.366C98.0997 178.957 96.0574 162.304 97.0605 154.542Z" fill="#121926"/>
<path d="M60.0797 184.667C56.9478 181.929 57.3339 171.893 59.9931 168.097C62.2663 164.855 63.9044 152.478 58.64 147.924C56.9009 146.422 55.9592 144.596 55.8437 142.521C55.6056 138.26 58.7772 133.876 61.4833 130.954C65.5281 126.578 62.49 118.631 62.4575 118.552L63.4678 118.156C63.6049 118.516 66.7874 126.801 62.2771 131.689C60.1807 133.959 56.6952 138.375 56.9225 142.46C57.0412 144.285 57.9207 145.977 59.3473 147.125C65.1204 152.125 63.374 165.175 60.8807 168.738C58.5426 172.07 58.1024 181.522 60.7941 183.867L60.0797 184.667Z" fill="white"/>
<path d="M67.7799 184.498L66.8057 184.022C74.3829 168.533 76.9627 155.244 77.8034 146.833C78.8859 136.07 77.605 128.563 76.1798 125.407C72.8927 118.109 75.3246 108.862 75.4292 108.477L76.4756 108.758C76.4504 108.848 74.0401 118.026 77.1684 124.968C80.2498 131.797 82.007 155.341 67.7799 184.498Z" fill="white"/>
<path d="M64.8353 194.886L69.1651 183.719H53.3721L54.1514 198.849H56.1359L56.8865 196.608L58.7699 198.488H69.277V194.886H64.8353ZM68.1945 197.408H59.2173L56.4102 194.605L55.3566 197.768H55.1762L54.5123 184.8H67.5847L63.2549 195.967H68.1945V197.408Z" fill="#121926"/>
<path d="M94.4232 194.526L98.753 183.359H82.96L83.7393 198.488H85.7238L86.4743 196.248L88.3578 198.128H98.8649V194.526H94.4232ZM97.7824 197.048H88.8052L85.9981 194.245L84.9445 197.408H84.7641L84.1001 184.44H97.1726L92.8428 195.607H97.7824V197.048Z" fill="#121926"/>
<path d="M59.4378 70.74L58.5502 70.1204C59.344 68.9893 59.6327 68.0564 59.4126 67.4296C59.2377 67.0429 58.9033 66.7512 58.4961 66.6299L58.7631 65.5817C59.5111 65.7899 60.1233 66.3269 60.4265 67.0406C60.7945 68.0312 60.4626 69.2775 59.4378 70.74Z" fill="#2970FF"/>
<path d="M62.9703 85.6135C60.5961 85.6135 57.7998 83.9601 57.6338 83.8628L58.1895 82.9335C59.5786 83.762 63.4466 85.5379 64.6842 83.8052L65.5646 84.432C64.9476 85.3037 63.995 85.6135 62.9703 85.6135Z" fill="#2970FF"/>
<path d="M72.1058 74.2738L71.1388 73.7911C71.2517 73.5662 71.2622 73.3038 71.1677 73.0707C70.7203 71.8495 68.3244 70.596 67.4404 70.2177L67.8662 69.2235C68.227 69.382 71.4744 70.8229 72.196 72.6996C72.3885 73.2138 72.3558 73.785 72.1058 74.2738Z" fill="#2970FF"/>
<path d="M65.0921 78.7189C63.1978 78.7189 60.4628 76.8674 60.1309 76.6369L60.7443 75.7507C61.9638 76.59 64.2983 77.84 65.3591 77.6131C65.5201 77.5909 65.6622 77.4968 65.7452 77.3573L66.6761 77.9121C66.4384 78.3054 66.0452 78.5801 65.5937 78.6685C65.4287 78.7027 65.2606 78.7196 65.0921 78.7189Z" fill="#2970FF"/>
<path d="M73.6069 84.1582L72.5244 84.079C72.5497 83.7187 72.8167 80.592 74.3285 79.3673C74.801 78.9795 75.4157 78.8094 76.0208 78.899L75.8692 79.9797C75.5607 79.9281 75.2451 80.0151 75.0069 80.2174C74.0326 80.9991 73.6646 83.3261 73.6069 84.1582Z" fill="#2970FF"/>
<path d="M69.9666 64.3462C69.8163 64.3468 69.6671 64.32 69.5264 64.2669C68.4151 63.8563 67.9316 61.9255 67.8486 61.5437L68.9022 61.3059C69.0646 62.0263 69.5012 63.107 69.9017 63.2547C69.9342 63.2547 70.0208 63.2979 70.2156 63.1538L70.8651 64.0184C70.6102 64.2239 70.2942 64.3392 69.9666 64.3462Z" fill="#2970FF"/>
<path d="M91.9332 15.9505L91.0023 15.403L94.3615 9.72594L90.6523 12.4168L96.1584 1.81551L90.7966 3.50494L86.9214 13.7064L85.9111 13.3245L89.974 2.63321L98.3233 0L93.7265 8.85061L97.9553 5.77793L91.9332 15.9505Z" fill="#121926"/>
<path d="M76.2303 65.5457L93.2321 15.7129L85.626 12.8851L66.9933 45.341L67.9351 45.8777L86.1059 14.2179L91.879 16.3793L75.6891 63.7842L75.0252 61.6229L73.9932 61.9399L75.0937 65.5241V65.5709H75.1262L80.856 84.2087L53.7945 90.8908C54.0002 85.5991 54.7002 67.2639 54.4981 66.3382L53.4373 66.5579C53.4806 66.8461 53.4554 68.6004 53.3904 71.1543L30.6696 15.4967L38.07 16.1775L54.1734 49.4367L55.1476 48.9684L38.7808 15.1653L28.999 14.2684L52.9755 73.0887L53.3146 72.9518C53.1595 78.2543 52.8853 85.8225 52.658 91.5824L52.6291 92.3028L57.3703 91.1429V97.0613L77.937 92.2956L75.9597 86.5573L82.2199 85.012L76.2303 65.5457ZM76.5153 91.4995L58.4527 95.6853V90.862L74.8953 86.8203L76.5153 91.4995Z" fill="#121926"/>
<path d="M30.3669 15.5579L26.2933 7.44939L30.2082 10.2915L25.6113 1.44092L33.9607 4.07413L38.2472 15.4967L37.0096 15.1473L33.1344 4.94586L27.7726 3.26003L33.2787 13.8613L29.2556 10.9399L31.3339 15.0752L30.3669 15.5579Z" fill="#121926"/>
<path d="M40.9457 25.6729L39.8632 25.4928C40.1194 23.9619 37.7308 21.4295 36.7891 20.5794L37.5107 19.7761C37.9184 20.1291 41.3426 23.2883 40.9457 25.6729Z" fill="#2970FF"/>
<path d="M45.0409 39.2136C43.4605 38.4247 42.0497 34.9954 41.8945 34.61L42.8976 34.2065C43.428 35.5286 44.6079 37.7907 45.5244 38.2482L45.0409 39.2136Z" fill="#2970FF"/>
<path d="M83.2304 24.7723C82.9423 24.592 82.7677 24.2761 82.7686 23.9366C82.7686 22.8559 84.6051 21.5159 85.3953 20.99L85.9943 21.8905C84.8829 22.611 83.8618 23.6052 83.851 23.9366C83.849 23.9102 83.8389 23.8851 83.8221 23.8645L83.2304 24.7723Z" fill="#2970FF"/>
<path d="M83.966 30.9861L83.8145 29.9054C85.8423 29.6172 85.8747 26.1555 85.8747 26.1195H86.9572C86.9572 26.3032 86.9247 30.5574 83.966 30.9861Z" fill="#2970FF"/>
<path d="M77.2152 38.522C75.9018 38.0861 75.4941 35.0279 75.4111 34.1021L76.4936 33.994C76.6668 35.6979 77.1791 37.3657 77.576 37.499L77.2152 38.522Z" fill="#2970FF"/>
<path d="M80.8235 41.7639L80.4844 40.7409C81.8916 40.269 81.7292 37.0306 81.5668 35.9319L82.6493 35.7662C82.7034 36.2922 83.3493 40.9246 80.8235 41.7639Z" fill="#2970FF"/>
<path d="M77.6881 49.0259C77.5662 49.0269 77.4448 49.0111 77.3273 48.9791C75.801 48.5865 74.8737 45.5966 74.7041 45.0167L75.7433 44.7213C76.086 45.9172 76.9159 47.7724 77.5979 47.9633C77.6592 47.9633 77.8144 48.0173 78.0886 47.7436L78.8535 48.5072C78.5512 48.8303 78.1308 49.0174 77.6881 49.0259Z" fill="#2970FF"/>
<path d="M89.8438 18.9187H88.7613C88.7613 18.2811 87.2351 18.0182 86.416 18.0182V16.9375C86.766 16.9375 89.8438 16.9915 89.8438 18.9187Z" fill="#2970FF"/>
<path d="M46.2609 47.6536C45.2181 45.9173 46.5892 44.0838 47.4624 43.3597L48.1552 44.1882L47.7943 43.774L48.1552 44.1882C48.1371 44.1882 46.3511 45.7192 47.1918 47.0988L46.2609 47.6536Z" fill="#2970FF"/>
<path d="M53.7621 61.0645H52.6796C52.6796 59.0617 50.024 58.7339 49.9121 58.7195L50.0348 57.6388C51.3229 57.7901 53.7621 58.687 53.7621 61.0645Z" fill="#2970FF"/>
<path d="M41.1767 31.2059C41.1154 31.2094 41.054 31.2094 40.9927 31.2059C39.7479 31.0294 38.5427 28.9689 38.3154 28.5583L39.2608 28.0323C39.7948 28.9905 40.668 30.0676 41.1443 30.136C41.2011 30.1446 41.2581 30.121 41.2922 30.0748L42.0571 30.8385C41.8254 31.0745 41.5078 31.207 41.1767 31.2059Z" fill="#2970FF"/>
<path d="M179.327 200.43C177.606 200.43 7.16228 200.07 4.41644 200.43L4.23242 199.349C6.2927 198.989 172.262 199.324 179.327 199.349V200.43Z" fill="#121926"/>
<path d="M10.8242 102.31V108.794H16.5973V199.929H23.8137V108.794H156.956V200.29H164.172V108.794H169.946V102.31H10.8242ZM22.7313 198.849H17.6798V109.154H22.7313V198.849ZM163.09 199.209H158.039V109.514H163.09V199.209ZM168.863 107.713H11.9067V103.39H168.863V107.713Z" fill="#121926"/>
<path d="M74.4621 51.6196C73.8519 51.1799 73.1992 50.8022 72.5137 50.4921C71.7921 50.1607 71.7921 50.1607 71.7921 48.8171C71.7491 47.66 71.5138 46.5182 71.0957 45.4382C71.3988 44.2027 71.6369 41.5586 68.7973 40.0349L58.8278 20.511L56.3021 42.787C55.4469 43.0283 54.6026 43.2157 54.1624 43.8352C53.1666 45.2293 53.6212 45.9569 54.047 47.6356C54.4727 49.3142 53.0583 48.7955 51.8387 49.7104C50.6192 50.6254 49.0352 51.8717 51.146 52.902L57.5577 54.2528L56.3815 56.5618C56.0877 57.1372 56.0446 57.8082 56.2625 58.4163C56.4804 59.0245 56.9398 59.516 57.5325 59.775L62.501 61.9363C62.7983 62.0651 63.1186 62.1325 63.4427 62.1344C64.0863 62.1324 64.7009 61.8668 65.1428 61.3997C65.5848 60.9326 65.8154 60.3049 65.7808 59.6633L65.4958 54.2852C66.0947 54.1977 66.6544 53.9358 67.105 53.5324C67.17 53.4747 67.2349 53.4135 67.2962 53.3486L67.271 54.0511C68.0552 54.0799 68.7768 54.0943 69.4359 54.0943C72.8998 54.0943 74.7905 53.6908 75.0647 52.8876C75.1802 52.5778 75.1585 52.1131 74.4621 51.6196ZM59.5098 24.1888L67.2782 39.3973C65.7734 38.9921 64.2179 38.8052 62.6597 38.8426C62.6597 38.8426 59.3907 38.0393 58.8026 40.5824C58.8026 40.5824 58.8026 40.6113 58.8026 40.6293C58.6638 41.3925 58.1598 42.0396 57.4531 42.3619L59.5098 24.1888ZM64.1607 60.8124C63.8014 61.0646 63.3362 61.1111 62.9339 60.9349L57.9655 58.7736C57.6451 58.6348 57.3966 58.3698 57.279 58.0415C57.1615 57.7132 57.1853 57.351 57.3448 57.0409L58.6618 54.4725L62.9917 55.3839C63.2352 54.9691 63.4141 54.5196 63.5221 54.0511C63.811 54.1508 64.108 54.2255 64.4097 54.2744L64.6984 59.7101C64.7229 60.1458 64.5194 60.563 64.1607 60.8124ZM64.7958 53.2298C64.3665 53.1912 63.9463 53.0841 63.5509 52.9128C63.4742 52.5334 63.2737 52.1901 62.9809 51.9366C61.5881 50.7046 60.4299 49.7176 61.4077 48.7955C62.3855 47.8733 62.187 46.6774 61.5015 45.7048C61.4947 45.6957 61.4886 45.6861 61.4834 45.676C61.3307 45.4385 61.3675 45.1264 61.5713 44.9308C61.7751 44.7353 62.0889 44.7109 62.3206 44.8727L63.7638 45.8921L67.7653 46.0146C67.7653 46.0542 67.7653 46.0974 67.7653 46.1406C67.7633 46.1574 67.7633 46.1743 67.7653 46.1911V46.2775C67.7674 46.2955 67.7674 46.3136 67.7653 46.3316C67.8122 47.088 67.7653 50.0706 67.0437 51.9078C66.868 52.206 66.6478 52.4756 66.3906 52.7075C65.9569 53.0988 65.3774 53.2886 64.7958 53.2298ZM67.7509 52.974C67.8514 52.7948 67.9405 52.6095 68.0179 52.4193C69.1256 50.5677 69.1003 47.9778 68.855 46.0974V46.0578L70.1684 46.0974C70.4936 46.9696 70.6799 47.8873 70.7204 48.8171C70.7204 50.6722 70.955 50.9568 72.0555 51.4719C72.6815 51.7534 73.2775 52.0974 73.8343 52.4985L73.9209 52.5634C73.1235 52.9056 70.3127 53.0461 67.7509 52.9596V52.974Z" fill="#121926"/>
<path d="M123.581 76.1938V58.9032H116.906V52.9596H115.463V58.9032H103.916V52.9596H102.473V58.9032H95.798V76.1938H88.9424V101.769H130.076V76.1938H123.581ZM104.999 65.9275C106.081 62.6855 107.164 60.164 107.525 62.3253C107.885 64.4866 109.329 69.8899 110.411 66.648C111.494 63.406 111.494 60.5242 112.215 62.3253C112.937 64.1264 114.741 69.8899 115.823 66.2877C116.906 62.6855 118.71 60.8844 118.71 63.0458C118.71 64.9261 121.719 66.2625 122.499 65.3872V76.1938H96.8804V65.3476C97.1366 66.7884 97.602 67.6205 98.5041 66.2877C100.669 63.0458 100.669 60.164 101.391 62.3253C102.112 64.4866 103.916 69.1695 104.999 65.9275ZM128.993 100.689H90.0248V79.2088C90.8656 82.7786 92.5217 88.6754 93.8134 86.0998C95.6175 82.4976 96.3392 79.9761 97.0608 80.6965C97.7825 81.417 99.9474 89.3418 101.391 86.0998C102.834 82.8579 101.751 78.8954 103.195 80.3363C104.638 81.7772 104.277 90.0623 106.442 86.4601C108.607 82.8579 107.164 78.175 109.329 80.3363C111.494 82.4976 112.215 88.2612 113.298 85.3794C114.38 82.4976 115.102 78.5352 115.823 79.9761C116.545 81.417 118.71 89.3418 120.153 85.7396C121.597 82.1374 124.122 77.4546 124.844 80.6965C125.4 83.1965 127.886 86.2907 128.993 85.9521V100.689Z" fill="#121926"/>
<path d="M102.833 51.8788C102.833 51.8788 100.307 51.1584 102.112 48.6369C103.916 46.1153 103.555 44.6744 103.555 44.6744C103.555 44.6744 106.802 48.9971 102.833 51.8788Z" fill="#121926"/>
<path d="M116.184 51.8788C116.184 51.8788 113.658 51.5186 115.462 48.9971C117.266 46.4755 116.905 44.3142 116.905 44.3142C116.905 44.3142 119.431 49.3573 116.184 51.8788Z" fill="#121926"/>
<path d="M17.9977 90.3467L17.3626 91.2185C13.0328 88.0809 10.2581 75.5741 13.5885 68.928C16.8034 62.5089 15.9338 57.2893 10.388 49.6743C6.22414 43.954 8.02462 39.4332 9.53646 37.1819L7.21639 37.47L9.02049 33.6769C3.90767 32.5963 0 27.1353 0 20.5397C0 13.1804 4.84581 7.21155 10.8246 7.21155C16.8034 7.21155 21.6492 13.1804 21.6492 20.5397C21.6492 27.6468 17.1317 33.4536 11.438 33.8462L12.9895 36.7496L11.005 36.9981C9.69522 38.5147 6.83392 42.9598 11.2612 49.0403C17.0343 56.9399 17.9399 62.653 14.5555 69.4107C13.1447 72.2313 12.8235 76.6476 13.7003 81.226C14.5122 85.4585 16.2008 89.0391 17.9977 90.3467Z" fill="#121926"/>
<path d="M104.342 30.5647L96.5771 37.4701L100.088 38.0537L106.492 33.2591L104.342 30.5647ZM99.8065 36.901L98.9874 36.7641L104.212 32.1281L104.934 33.0502L99.8065 36.901Z" fill="#121926"/>
<path d="M58.0598 4.75488L52.7666 8.81816L53.4305 10.8138L62.1696 7.32325L58.0598 4.75488ZM54.0367 9.2072L58.1248 6.06608L59.7881 7.10712L54.0944 9.3729L54.0367 9.2072Z" fill="#121926"/>
<path d="M143.473 44.1774L141.488 47.6463L146.561 52.711L149.015 49.2817L143.473 44.1774ZM146.424 51.0468L142.838 47.4662L143.74 45.892L147.575 49.433L146.424 51.0468Z" fill="#121926"/>
<path d="M32.1524 78.8954L26.1592 83.6791V87.8288L35.1255 81.86L32.1524 78.8954ZM27.2416 84.1978L32.073 80.3363L33.4297 81.6907L27.2416 85.8116V84.1978Z" fill="#121926"/>
</svg>
