<svg width="184" height="68" viewBox="0 0 184 68" fill="none" xmlns="http://www.w3.org/2000/svg">
<g clip-path="url(#clip0_69_2985)">
<path d="M23.0786 9.29956C15.8954 9.29956 10.2288 15.1515 10.2288 22.4323C10.2288 29.7131 15.4614 35.565 23.459 35.565C29.5499 35.565 32.8806 32.995 34.7825 29.9032L30.0229 26.8602C28.8818 29.0986 27.0726 30.3812 23.6443 30.3812C19.8845 30.3812 16.9829 28.0989 16.1733 24.339H35.6359C35.7286 23.8172 35.7773 22.8614 35.7773 21.9105C35.7773 15.488 30.969 9.29956 23.0738 9.29956H23.0786ZM16.1782 20.1013C16.939 16.2487 19.6991 14.0591 23.2201 14.0591C26.741 14.0591 29.3109 16.3414 29.979 20.1013H16.1782V20.1013ZM98.6564 9.29956C95.2281 9.29956 92.4679 10.6796 90.7563 12.6303V9.87012H85.0457V34.9457H91.0879V19.8623C91.1366 17.0534 93.6091 14.7224 96.891 14.6736C100.319 14.6736 102.553 16.8144 102.553 20.4329V34.9457H108.644V19.2917C108.644 13.3423 104.835 9.29956 98.6515 9.29956H98.6564ZM74.2831 12.6791V9.87012H68.5725V34.9457H74.6147V20.6718C74.6147 17.2923 77.3748 14.9613 81.754 14.9613V9.29956C78.6135 9.29956 75.9947 10.6796 74.2831 12.6791V12.6791ZM58.8632 13.4398C57.0052 11.0113 54.2012 9.67994 50.5827 9.67994C43.3995 9.67994 38.162 14.9125 38.162 22.4323C38.162 29.952 43.3946 35.5162 50.5827 35.5162C54.2012 35.5162 57.0052 34.0386 58.8632 31.5662V34.9457H64.4762V9.87012H58.8632V13.4398V13.4398ZM51.3922 30.191C47.252 30.191 44.209 26.909 44.209 22.4323C44.209 17.9555 47.2569 14.6736 51.3922 14.6736C55.5276 14.6736 58.673 17.8141 58.673 22.4323C58.673 27.0504 55.7227 30.191 51.3922 30.191Z" fill="white"/>
<path d="M0.363525 0.106934H6.4154V34.9454H0.363525V0.106934Z" fill="white"/>
<path d="M130.452 35.5161C120.699 35.5161 113.56 28.3328 113.56 18.4333C113.56 8.53378 120.748 1.30664 130.403 1.30664C138.445 1.30664 143.634 5.87603 145.677 11.3476L139.874 13.7761C138.401 9.54324 135.114 7.06592 130.311 7.06592C124.03 7.06592 119.748 11.6792 119.748 18.5357C119.748 25.3922 124.078 30.0494 130.979 30.0494C136.168 30.0494 139.879 27.4307 141.161 22.0079H130.262V17.3897H147.057C147.057 28.8595 139.825 35.521 130.452 35.521V35.5161Z" fill="#2970FF"/>
<path d="M152.28 29.9713H153.987L153.533 29.508L153.367 29.3275C150.866 26.2845 149.486 22.432 149.486 18.4868C149.486 9.07009 157.147 1.40894 166.563 1.40894C175.98 1.40894 183.641 9.07009 183.641 18.4868C183.641 27.9036 175.98 35.5647 166.563 35.5647H152.28V29.9761V29.9713ZM155.074 18.482C155.074 21.1007 155.976 23.6512 157.61 25.6847L159.088 27.1916L156.259 29.9713H166.563C172.898 29.9713 178.053 24.8167 178.053 18.482C178.053 12.1472 172.898 6.99266 166.563 6.99266C160.229 6.99266 155.074 12.1472 155.074 18.482V18.482Z" fill="#2970FF"/>
</g>
<path d="M104.352 67.8929V60.1467H104.21C104.033 60.5002 103.777 60.8759 103.443 61.2736C103.108 61.665 102.666 61.9996 102.117 62.2774C101.568 62.5552 100.876 62.6941 100.043 62.6941C98.9005 62.6941 97.8777 62.4005 96.975 61.8134C96.0722 61.2263 95.3588 60.374 94.8348 59.2566C94.3108 58.1391 94.0488 56.7818 94.0488 55.1846C94.0488 53.5684 94.314 52.2048 94.8443 51.0937C95.3809 49.9763 96.1038 49.1334 97.0128 48.5653C97.9219 47.9908 98.9352 47.7035 100.053 47.7035C100.905 47.7035 101.606 47.8487 102.155 48.1391C102.704 48.4232 103.14 48.7673 103.462 49.1713C103.784 49.5691 104.033 49.9447 104.21 50.2982H104.418V47.8929H107.789V67.8929H104.352ZM101 59.8816C101.726 59.8816 102.344 59.6858 102.856 59.2944C103.367 58.8967 103.755 58.3443 104.02 57.6372C104.286 56.9302 104.418 56.1063 104.418 55.1656C104.418 54.225 104.286 53.4074 104.02 52.713C103.762 52.0185 103.376 51.4788 102.865 51.0937C102.36 50.7086 101.738 50.516 101 50.516C100.236 50.516 99.5981 50.7149 99.0867 51.1126C98.5753 51.5103 98.1902 52.0596 97.9314 52.7603C97.6726 53.4611 97.5431 54.2629 97.5431 55.1656C97.5431 56.0747 97.6726 56.886 97.9314 57.5994C98.1966 58.3064 98.5848 58.8651 99.0962 59.2755C99.6139 59.6795 100.248 59.8816 101 59.8816Z" fill="white"/>
<path d="M119.25 56.3209V47.8929H122.678V62.4384H119.354V59.8531H119.202C118.874 60.6675 118.334 61.3336 117.583 61.8513C116.838 62.3689 115.919 62.6278 114.827 62.6278C113.874 62.6278 113.031 62.4163 112.299 61.9933C111.573 61.564 111.005 60.9422 110.594 60.1278C110.184 59.3071 109.979 58.3159 109.979 57.1543V47.8929H113.407V56.624C113.407 57.5457 113.659 58.278 114.164 58.8209C114.669 59.3639 115.332 59.6353 116.153 59.6353C116.658 59.6353 117.147 59.5122 117.621 59.266C118.094 59.0198 118.483 58.6537 118.786 58.1675C119.095 57.6751 119.25 57.0596 119.25 56.3209Z" fill="white"/>
<path d="M124.869 62.4384V47.8929H128.297V62.4384H124.869ZM126.593 45.8285C126.05 45.8285 125.583 45.6486 125.191 45.2888C124.8 44.9226 124.604 44.4838 124.604 43.9725C124.604 43.4548 124.8 43.016 125.191 42.6562C125.583 42.29 126.05 42.1069 126.593 42.1069C127.142 42.1069 127.609 42.29 127.994 42.6562C128.386 43.016 128.581 43.4548 128.581 43.9725C128.581 44.4838 128.386 44.9226 127.994 45.2888C127.609 45.6486 127.142 45.8285 126.593 45.8285Z" fill="white"/>
<path d="M130.3 62.4384V60.2603L137.8 50.8569V50.7338H130.546V47.8929H141.995V50.2319L134.855 59.4744V59.5975H142.241V62.4384H130.3Z" fill="white"/>
<path d="M143.94 62.4384V60.2603L151.44 50.8569V50.7338H144.187V47.8929H155.635V50.2319L148.495 59.4744V59.5975H155.882V62.4384H143.94Z" fill="white"/>
<path d="M163.793 62.7225C162.335 62.7225 161.075 62.4194 160.015 61.8134C158.96 61.201 158.149 60.3361 157.581 59.2187C157.013 58.0949 156.729 56.7723 156.729 55.2509C156.729 53.7547 157.013 52.4415 157.581 51.3115C158.156 50.1751 158.957 49.2913 159.986 48.66C161.015 48.0223 162.224 47.7035 163.613 47.7035C164.51 47.7035 165.356 47.8487 166.151 48.1391C166.953 48.4232 167.66 48.8651 168.272 49.4649C168.891 50.0646 169.377 50.8285 169.731 51.7566C170.084 52.6783 170.261 53.7768 170.261 55.052V56.1031H158.339V53.7925H166.975C166.969 53.136 166.827 52.552 166.549 52.0406C166.271 51.523 165.883 51.1158 165.384 50.8191C164.892 50.5223 164.317 50.374 163.661 50.374C162.96 50.374 162.344 50.5444 161.814 50.8853C161.284 51.2199 160.87 51.6619 160.573 52.2111C160.283 52.754 160.135 53.3506 160.128 54.0009V56.0179C160.128 56.8639 160.283 57.5899 160.592 58.1959C160.902 58.7957 161.334 59.2566 161.89 59.5785C162.445 59.8942 163.096 60.052 163.84 60.052C164.339 60.052 164.791 59.9826 165.195 59.8437C165.599 59.6985 165.949 59.487 166.246 59.2092C166.543 58.9314 166.767 58.5874 166.918 58.177L170.119 58.5369C169.917 59.3828 169.532 60.1215 168.964 60.7528C168.402 61.3778 167.682 61.8639 166.805 62.2111C165.927 62.552 164.923 62.7225 163.793 62.7225Z" fill="white"/>
<path d="M183.324 51.7376L180.199 52.0785C180.111 51.7629 179.956 51.4662 179.735 51.1884C179.52 50.9106 179.23 50.6865 178.864 50.516C178.498 50.3456 178.049 50.2603 177.519 50.2603C176.806 50.2603 176.206 50.415 175.72 50.7244C175.24 51.0337 175.003 51.4346 175.01 51.927C175.003 52.35 175.158 52.6941 175.474 52.9592C175.796 53.2244 176.326 53.4422 177.064 53.6126L179.546 54.1429C180.922 54.4396 181.945 54.91 182.614 55.5539C183.289 56.1978 183.63 57.0406 183.636 58.0823C183.63 58.9977 183.362 59.8058 182.832 60.5066C182.308 61.201 181.578 61.7439 180.644 62.1353C179.71 62.5268 178.636 62.7225 177.424 62.7225C175.644 62.7225 174.211 62.35 173.125 61.605C172.039 60.8538 171.392 59.809 171.184 58.4706L174.527 58.1486C174.678 58.8052 175 59.3007 175.492 59.6353C175.985 59.9699 176.626 60.1372 177.415 60.1372C178.229 60.1372 178.883 59.9699 179.375 59.6353C179.874 59.3007 180.123 58.8872 180.123 58.3948C180.123 57.9781 179.962 57.6341 179.64 57.3626C179.325 57.0912 178.832 56.8828 178.163 56.7376L175.682 56.2168C174.287 55.9264 173.254 55.4371 172.585 54.749C171.916 54.0545 171.585 53.177 171.591 52.1164C171.585 51.2199 171.828 50.4434 172.32 49.7869C172.819 49.124 173.51 48.6126 174.394 48.2528C175.284 47.8866 176.31 47.7035 177.472 47.7035C179.176 47.7035 180.518 48.0665 181.496 48.7925C182.481 49.5186 183.09 50.5002 183.324 51.7376Z" fill="white"/>
<defs>
<clipPath id="clip0_69_2985">
<rect width="183.273" height="35.4579" fill="white" transform="translate(0.363525 0.106934)"/>
</clipPath>
</defs>
</svg>
